<?xml version="1.0" encoding="UTF-8"?> <!-- Creator: CorelDRAW 2020 (64-Bit) --> <svg xmlns="http://www.w3.org/2000/svg" xmlns:xlink="http://www.w3.org/1999/xlink" xmlns:xodm="http://www.corel.com/coreldraw/odm/2003" xml:space="preserve" width="317.327mm" height="317.24mm" style="shape-rendering:geometricPrecision; text-rendering:geometricPrecision; image-rendering:optimizeQuality; fill-rule:evenodd; clip-rule:evenodd" viewBox="0 0 9560.94 9558.33"> <defs> <style type="text/css"> <![CDATA[ .fil0 {fill:#182D43} ]]> </style> </defs> <g id="Слой_x0020_1"> <metadata id="CorelCorpID_0Corel-Layer"></metadata> <path class="fil0" d="M6105.81 8924.09c42.85,-104.3 485.24,-505.69 832.59,-1469.31 43.93,-121.87 145.09,-476.23 199.12,-554.55 93.14,9.99 487.46,184.04 577.61,229.16 90.58,45.34 462.93,239.65 498.35,312.28 -48.97,92.24 -339.38,398.61 -426.46,479.51 -303.27,281.73 -654.34,550.55 -1045.87,739.57 -129.7,62.62 -490.22,241.02 -635.34,263.34zm-4786.26 -1503.68c89.5,-148.04 969.78,-541.89 1107.05,-539.63 31.77,63.24 66.14,208.48 92.28,289.35 95.27,294.86 191.99,544.8 326.79,822.16 84.11,173.06 176.73,335.7 278.07,487.06 65.13,97.29 304.75,400.3 320.02,443.75 -204.83,-48.98 -464.51,-182 -640.95,-272.1 -210.06,-107.26 -387.58,-214.5 -563.88,-339.1 -195.55,-138.2 -567.1,-462.59 -715.99,-644.7 -68.65,-83.96 -140.37,-155.02 -203.39,-246.8zm5375.67 -641.78c23.51,67.02 -148.59,535.38 -185.52,630.47 -249.9,643.4 -639.39,1340.51 -1268.72,1622.8 -266.91,119.72 -225.81,56.52 -230.43,-48.92 -11.62,-265.22 -7.24,-541.59 -7.41,-807.91 -0.36,-548.61 4.11,-1099.36 -0.77,-1647.67 231.49,-26.62 1577.64,152.06 1692.86,251.23zm-3850.85 -28.79c253.95,-90.27 938.47,-173.33 1252.95,-200.59 132.12,-11.45 325.42,-34.56 457.29,-23.4 0.08,282.67 16.02,2333.35 -17.63,2567.33 -77.29,18.23 -304.33,-97.86 -363.65,-132.78 -303.92,-178.89 -556.55,-465.07 -745.88,-774.22 -128.16,-209.27 -241.79,-424.97 -340.11,-669.91 -72.68,-181.06 -217.32,-578.95 -242.96,-766.43zm2160.06 -1966.57l1940.52 0.88c22.71,289.17 -48.7,1300.53 -139.38,1539.62 -56.97,12.8 -347.72,-60.44 -429.19,-76.15 -314.59,-60.64 -573.61,-99.67 -896.16,-126.99 -152.76,-12.93 -328.71,-15.14 -477.49,-35.69l1.7 -1301.68zm-2254.39 1528.76c-82.4,-226.93 -160.11,-1235.92 -142.48,-1528.93l1945.29 2.34c8.05,118.55 10.13,1242.81 -3.65,1300.11 -321.19,30.39 -626.07,36.16 -939.3,78.82l-859.86 147.66zm4492.2 151.77c-14.39,-98.74 80.21,-641.47 96.11,-796.41 14.05,-136.9 27.91,-275.46 36.47,-415.35 30.71,-501.73 -46.56,-458.96 198.45,-465.08 325.62,-8.14 1350.54,-17.12 1561.83,-1.94 10.51,372.14 -94.35,926.7 -194.74,1259.58 -108.34,359.23 -274.89,705.91 -444.04,1001.78 -66.94,-2.56 -246.67,-121.45 -308.28,-155.43 -100.19,-55.28 -194.13,-101.1 -301.52,-155.58 -135.68,-68.84 -635.9,-265.48 -644.28,-271.57zm-5253.49 102.95c-203.91,79.42 -441.15,190.54 -631.88,291.7 -74.57,39.55 -233.05,144.03 -309.8,152.63 -32.35,-29.17 -44.65,-67.88 -70.02,-115.91 -155.02,-293.5 -271.6,-547.44 -368.02,-875.5 -92.93,-316.19 -191.93,-896.88 -187.1,-1236.54l1738.73 2.56c30.61,472.78 37.36,782.75 102.23,1260.12 12.39,91.16 61.67,316.48 58.76,386.4 -78.88,50.5 -230.03,94.47 -332.9,134.54zm3015.29 -3500.17c142.91,-15.93 315.71,-7.78 465.82,-21.96 139.14,-13.14 297.4,-27.43 429.55,-49.11 141.71,-23.24 274.83,-39.72 414.21,-65.22 96.34,-17.62 328.61,-77.14 408.37,-69.11 82.93,230.3 249.58,1314.95 218.91,1493.03l-1938.27 -1.64 1.41 -1286zm-2396.27 1286.93c14.55,-252.82 134.31,-1325.91 224.97,-1483.5 53.79,-8.6 338.36,59.47 416,73.3 137.37,24.48 276.08,43.59 418.05,62.71 234.62,31.59 789.98,57.28 888.04,78.08l-0.22 1269.41 -1946.84 0zm-2151.11 0.34c29.87,-545.79 251.53,-1195.82 505.34,-1652.55 124.23,-223.56 163.14,-260.83 274.32,-437.15 63.41,2.24 224.42,98.33 286.98,130.1 163.83,83.19 403.48,183.15 574.52,243.29 97.49,34.28 209.1,65.43 294.31,109.78 4.59,96.8 -40.52,287.84 -60.05,387.85 -48.76,249.68 -92.76,538.77 -119.6,795.31 -9.71,92.78 -18.54,354.39 -38.69,422.01l-1717.13 1.37zm7282.89 -1858.76c107.6,-46.74 513.08,-257.51 556.52,-264.62 84.68,92.99 221.58,330.71 286.71,449.87 237.66,434.82 516.14,1170.73 513.35,1672.95 -185.91,4.2 -1642.78,11.85 -1714.16,-6.56 -22.52,-95.63 -26.6,-316.41 -38.72,-429.89 -14.41,-134.93 -30.73,-266.17 -51.68,-403.81l-145.1 -780.04 593.07 -237.89zm-4789.07 -57.44c15.36,-124.78 192.45,-514.75 248.98,-634.58 126.93,-269.04 322.8,-598.37 515.59,-813.32l220.15 -215.55c115.74,-94.21 434.87,-311.02 576.76,-303.15 72.42,116.49 42.98,857.58 43.06,1060.84 0.14,358.86 14.4,750.07 -1.7,1104.99 -377.35,18.47 -1267.43,-102.57 -1602.84,-199.24zm2054.89 194.26c-17.1,-150.48 -2.51,-387.09 -2.97,-547.3 -1.11,-385.57 -17.81,-1328.33 16.53,-1608.61 126.63,-39.9 483.03,200.86 590.47,287.99 300.61,243.78 573.73,662.27 740.98,1023.68 53.03,114.59 238.69,517.29 250.95,640.59 -118.69,16.66 -255.11,53.96 -382.88,77.55 -299.51,55.3 -948.92,149.38 -1213.07,126.09zm2002.1 -343.19c-63.51,-145.4 -111.43,-309.07 -179.3,-457.98 -177.83,-390.18 -320.6,-673.71 -586.47,-1007.97 -42.12,-52.96 -129.69,-141.96 -130.78,-178.59 87.42,5.78 465.94,180.04 553.6,223 440.45,215.85 878.6,514.77 1211.41,861.63 38.97,40.61 98.46,89.2 129.93,153.85 -88.9,72.49 -860.59,420.92 -998.4,406.05zm-5463.27 -384.8c7.13,-53.15 56.24,-89.13 85.17,-119.06 255.56,-264.38 557.58,-518.72 877.71,-706.08 220.1,-128.82 732.49,-401.93 944.87,-440.71 -19.12,53.33 -106.32,145.61 -142.49,190.73 -51.93,64.78 -91.58,120.24 -139.77,189.7 -170.33,245.55 -334.66,562.77 -455.36,841.24 -49.95,115.24 -136.44,378.6 -200.44,449.39 -141.4,2.6 -899.02,-329.89 -969.67,-405.22zm8016.74 3064.69l0 -338.7c-11.21,-41.03 -14.32,-211.27 -19.67,-271.22 -75.33,-844.67 -395.91,-1706.94 -886.3,-2377.84 -178.56,-244.29 -360.48,-435.28 -552.75,-627.14 -856.85,-855.01 -2070.14,-1359.52 -3388.14,-1353.66 -730.87,3.25 -1357.91,183.02 -1933.03,438.94 -273.25,121.6 -544.71,284.18 -755.77,434.26 -425.82,302.79 -885.84,760.19 -1180.61,1189.55 -344.85,502.31 -570.05,1024.09 -722.65,1637.05 -235.63,946.48 -124.85,2145.33 287.56,3029.54 246.16,527.78 454.13,848.22 823.97,1259.09 50.22,55.79 73.3,90.55 138.54,148.59 34.49,30.68 42.71,46.33 72.25,76.47 25.89,26.42 49.4,46.66 77.58,71.11 395.39,343.18 719.42,607.05 1237.93,834.46 602.45,264.22 1173.37,432.32 1922.34,438.8 409.56,3.54 717.55,-14.71 1095.52,-96.92l354.97 -89.87c225.31,-64.24 434.58,-151.61 642.78,-239.76 327.33,-138.6 743.57,-413.57 1007.73,-629.52 276.18,-225.77 510.98,-465.64 735.3,-742.14 517.47,-637.85 867.85,-1431.45 988.74,-2264.87 13.29,-91.62 37.82,-479.01 53.69,-526.21z"></path> </g> </svg> 